<?xml version="1.0" encoding="UTF-8"?>
<svg version="1.1" viewBox="0 0 2048 1346" width="654" height="430" xmlns="http://www.w3.org/2000/svg">
<path transform="translate(1013,4)" d="m0 0h75l2 4v75l24 2 51 7 4-16 8-28 6-22 3-8 13 2 40 10 17 6 3 3-4 20-12 46-1 7 5 3 61 25h4l8-14 17-29 9-16 4-5 5 1 23 13 26 15 10 6 1 5-8 15-11 17-10 18-6 12 1 5 11 9 12 9 14 11 16 12 7 1 10-9 17-17 7-8 16-16 5-1 50 50-1 5-11 12-9 9-8 7-16 16-5 4-1 6 4 7 12 15 14 19 10 14 4 3 6-1 23-12 22-14 10-6 5-2 4 1 9 14 14 25 12 20-1 5-6 5-19 11-14 7-22 2h-117l-20-1-9-2-9-10-9-11-11-13-7-8-31-31-11-9-10-9-20-15-24-16-13-8-18-10-23-12-21-9-29-11-24-8-25-6-32-5-40-4h-57l-43 4-37 6-28 7-19 7-32 13-20 9-19 10-20 12-19 12-17 12-10 8-16 13-10 9-8 7-18 18-7 8-9 10-9 11-11 14-5 6-3 1-12 1-125 1-23-1-10-3-23-13-9-7-3-3 2-6 16-28 9-16 6-10 3-4 5 1 15 8 19 12 10 6 17 8 5-2 8-9 12-17 12-16 10-12 1-4-7-8-13-13-8-7-25-25 1-4 34-34 7-8 7-7 5-1 49 49 3 2 7-1 16-13 14-10 16-12 8-7-1-7-12-22-13-21-9-17 1-4 17-10 25-14 19-11 4 1 9 15 12 21 13 23 4 4 9-2 33-14 25-10 3-2-4-17-13-48-1-10 27-9 42-10h4l4 10 11 43 6 20 2 2 25-5 30-4 18-2v-76z" fill="#116AA4"/>
<path transform="translate(511,943)" d="m0 0h110l34 1 9 1 6 7 14 19 12 14 9 9 7 8 16 15 11 10 8 7 10 8 13 10 17 12 14 9 18 11 16 8 23 11 27 11 24 8 36 10 34 6 25 3 37 2h21l45-3 33-5 25-6 36-10 20-7 26-11 27-13 20-11 14-9 15-10 12-9 10-8 14-11 16-15 30-30 11-14 13-16 8-9 6-2 21-1h106l27 1 13 4 18 10 16 10 1 2-8 16-14 25-9 17-5 7-3 1-22-13-28-17-13-8-5 1-7 9-9 13-13 17-10 13-4 7 2 5 33 33 8 7 6 7 1 6-9 10-15 15-7 8-14 14-4 3-5-2-8-7-8-8-7-8-24-24-3-2h-5l-18 14-13 10-14 10-10 8-2 4 4 9 14 25 12 18 6 13-5 5-18 10-16 10-19 11-3 2-5-1-11-18-14-26-11-20-7 1-29 12-30 11-6 4 6 28 8 29 4 17-3 3-69 18-3-5-14-51-4-17h-12l-46 6-18 2-1 78-1 1h-71l-4-1-1-2v-75l-24-3-30-4-17-3h-5l-5 16-10 39-6 19-3 1-34-10-34-9-3-3 10-34 9-36v-4l-19-8-28-11-18-8h-6l-8 13-14 25-14 24-3 3-5-2-40-24-16-9-3-3 2-5 8-15 9-15 13-24 2-4v-6l-5-5-13-10-18-13-15-12-4-3h-5l-8 7-1 2h-2v2l-8 7-7 8-21 21-5 3-5-1-31-31-8-7-8-9-1-4 7-9 11-10 1-2h2l2-4h2v-2l8-7 7-8 8-8 2-6-3-6-10-13-13-18-14-19-3-2h-6l-21 12-24 15-14 8-4 1-7-10-14-24-12-23-3-6 2-4 9-7 20-12 10-4z" fill="#126AA4"/>
<path transform="translate(1037,239)" d="m0 0h28l28 2 22 3 35 7 35 10 22 8 25 11 24 12 18 11 23 16 14 10 10 8 14 12 8 7 28 28 9 11 10 12 13 17 5 6 2 1h543l14 1 7 4 8 8 8 7 9 9 8 7 18 18v2l-16 1h-622l-5-2-6-9-10-16-13-19-11-14-14-15-27-27-8-7-15-12-20-14-25-15-25-13-24-10-36-12-24-6-19-3-20-2-27-1h-17l-36 2-23 3-30 7-23 7-28 11-25 12-21 12-21 14-17 13-11 9-16 15-10 9-7 8-10 11-9 11-11 15-11 16-10 17-4 4-4 1h-677l-16-1 3-5 13-11 12-11 21-21 9-6 2-1 611-1 8-10 7-10 18-22 9-10 11-11 7-8 10-9 13-12 17-13 17-12 15-10 15-9 23-12 23-11 18-7 31-9 26-7 24-5 33-4z" fill="#828383"/>
<path transform="translate(40,852)" d="m0 0h662l15 1 4 4 11 18 14 20 11 14 11 13 7 8 8 8 4 5 8 7 11 10 14 11 15 11 11 7 22 13 27 14 20 8 24 8 27 7 25 5 27 3h63l33-4 33-7 25-7 29-11 32-16 24-15 17-12 18-14 12-11 8-7 7-6 4-5h2l2-4 14-15 9-11 11-15 12-19 8-13 3-3h644l-2 4-15 14-13 12-16 15-7 7-6 3-313 1h-42l-190-1-13 1-7 6-10 13-11 14-13 15-12 13-19 19-8 7-13 11-16 12-27 18-21 12-21 11-29 12-28 10-25 7-29 5-28 3-24 2h-41l-43-4-32-5-24-6-33-11-26-11-21-10-17-10-19-12-14-10-16-12-13-11-8-7-7-7-8-7-15-15-7-8-12-14-14-19-7-9-2-2h-608l-7-3-8-7-18-18-8-7-7-7-8-7-4-4v-2z" fill="#808181"/>
<path transform="translate(1219,585)" d="m0 0 4 1 1 4 20-4 13 1 12 3 11 6 10 9 5 5 8 11 7 16 5 20v33l-3 16-5 14-9 15-10 11-13 9-10 4-1 1-17 2-19-2-4-2 1 19 4 12 7 10 5 6 11 8v1h-111l5-5 10-8 7-10 4-11 2-16v-129l-2-9-5-8-9-8 1 4 4 12v12l-4 10-4 6-7 6-6 3-5 1h-18l-11-4-10-7-6-6 1-3 12-6 5-8 2-5v-9l-4-7-5-2h-14l-6 3-4 6-2 6v103l5 13 6 8 10 10 6 4v1h-111v-2l10-6 8-9 8-16 2-13v-58l-3-21-7-14-6-7-3-2v-2l31-11 30-11 8-3 5 1v2l15-3h18l19 4 12 5 12 9 9-1 47-13 14-4zm16 25-7 6-4 9-1 18v37l1 35 4 14 5 5 5 2h6l7-6 5-11 3-11 3-24v-25l-3-26-5-13-6-8-3-2z" fill="#090A0A"/>
<path transform="translate(1499,528)" d="m0 0h13l10 4 6 4 8 14 1 3v13l-6 12-9 9 7-1 4-1 1 1 1 134 4 15 7 11 8 8 8 5v2h-110l4-4 8-6 10-10 6-12 3-8 1-7-3-38-1-44-4-10-5-6-7-4 4 10v19l-6 12-8 7-10 4h-18l-9-3-10-5-8-7-2-4 14-7 4-5 3-9v-7l-3-6-3-3-3-1h-14l-5 2-3 1-2 5-3 12v92l4 16 7 11 9 9 8 5v1h-111v-2l9-6 5-5 6-7 5-10 3-12v-68l-4-17-7-14-5-6-2-1v-2l68-25h4v4l18-4h15l20 4 10 4 11 8 4 3 11-2 23-6 13-4-16-6-9-7-5-8-2-6-1-9 4-13 6-8 9-6z" fill="#090909"/>
<path transform="translate(236,532)" d="m0 0 2 1 1 114 19-19 9-11 7-14 1-3v-8l-1-5 64 2v3l-10 8-16 13-17 17-8 7-15 16 8 15 9 15 15 27 12 19 12 16 9 10v2l-40 3-23 1h-118l4-4 8-6 8-9 5-10 3-13v-143l-6-11-7-7-6-4v-2l25-7 43-12zm1 159 1 29 5 16 7 11 6 5 3-1 1-2v-17l-4-12-15-27z" fill="#090A0A"/>
<path transform="translate(662,585)" d="m0 0h10l22 4 15 6 10 8 7 8 6 13 1 7v44l-2 24-1 19 6 16 7 10 11 11 8 5v1h-195l1-3 6-3 9-7 9-12 5-12v-47l-2-20-1-29-6-11-10-8-3-2v-2l43-12 24-7h5l2 2 9-2zm0 21-8 2-3 4-3 13v91l5 19 6 10 4 4 4-1 8-9 5-10 3-8v-35l-2-33-1-32-2-8-5-6z" fill="#070808"/>
<path transform="translate(918,586)" d="m0 0 16 1 14 3 16 7 12 9 8 8 8 13 5 12 2 8 1 16-2 9-4 5-6 2h-96l2 17 5 19 6 10 7 6 7 3 8 1 9-2 6-4 3-4v-16l-7-8-2-2 1-4 9-6 7-3h17l12 6 7 8 3 6 1 5v8l-3 9-6 10-6 7-14 9-17 6-16 2-22-1-14-3-17-7-14-10-9-10-8-13-5-12-3-12v-40l5-18 8-16 8-10 7-7 13-8 15-6zm-2 24-9 6-5 6-4 8-6 26v4h53l1-1v-12l-4-18-4-9-6-7-6-3z" fill="#0A0B0B"/>
<path transform="translate(499,586)" d="m0 0 20 2 15 5 13 7 12 10 9 12 6 12 4 16 1 6v9l-4 8-7 6h-98l2 8 2 17 4 12 7 11 10 6 7 2 10-1 9-3 2-5 3-7-2-9-5-8-5-3 2-4 5-4 11-5h16l11 5 8 7 4 10v13l-4 11-8 10-8 7-16 8-8 3-10 1h-28l-11-2-15-5-15-9-12-11-10-15-5-13-4-17-1-7v-15l3-16 3-12 5-12 6-10 9-10 10-8 12-6 11-4zm-4 24-6 3-5 4-6 10-5 16-1 7v10h52v-10l-1-14-4-12-5-8-6-5-3-1z" fill="#0A0B0B"/>
<path transform="translate(1774,587)" d="m0 0h22l15 3 12 5 10 6 10 9 7 8 7 12 5 16 1 4v18l-3 6-5 4-5 1h-94l2 21 3 12 6 11 4 5 7 4 8 3h7l9-3 5-4 2-4v-13l-5-9-5-4 1-3 10-6 6-3h17l12 5 7 8 5 12-1 8-4 12-6 8-5 5-11 8-11 5-8 3-9 1h-29l-10-2-18-6-11-7-13-12-7-10-7-14-3-9-2-14v-27l3-16 5-14 8-14 14-14 14-8 15-5zm5 23-9 6-6 9-5 13-3 15v7h54v-8l-4-22-4-10-6-7-6-3z" fill="#0A0B0B"/>
<path transform="translate(1926,588)" d="m0 0h36l17 4 12 5 11 7 7 7 4 7 1 7-7 3-27 6-14 3h-5l1-8v-12l-3-6-6-4-7-2-10 1-9 4-4 8-2 10 4 9 9 6 20 6 21 6 15 6 11 7 9 8 7 10 4 10 2 10v16l-4 9-7 10-7 6-13 7-22 6-14 1h-28l-12-1-20-7-12-8-6-7-5-8-4-9-3-12v-7l35-10 18-5 10-3-16-5-17-7-11-9-6-7-5-12-1-4v-14l4-10 6-8 8-7 12-7 16-5zm5 97-7 12-5 18 2 11 3 6 7 6 6 2h15l7-3 5-4 3-5 1-4v-16l-4-10-9-7-17-6z" fill="#0B0C0C"/>
<path transform="translate(75,588)" d="m0 0h37l17 4 14 6 11 8 7 9 2 5v6l-10 3-43 9-1-2 3-11-2-11-4-5-7-3-10-1-10 3-4 2-2 5-2 7v8l3 7 9 6 20 6 21 6 16 6 12 8 10 10 6 10 4 14v18l-4 12-7 9-10 7-11 5-14 4-6 2-14 1h-27l-14-1-16-6-11-6-9-8-7-11-6-16-1-11 24-7 30-8 9-3-21-7-14-7-10-9-6-7-5-15v-11l4-11 6-9 8-7 16-8 12-4zm5 97-5 8-5 14-1 4v12l5 10 6 5 7 2h14l8-3 7-8 2-9v-8l-3-11-5-6-8-5-15-5z" fill="#0B0C0D"/>
<path transform="translate(1612,587)" d="m0 0h13l18 2 21 7 10 6 8 7 5 8 2 8-7 3-28 6-13 3h-6l2-9v-10l-4-8-9-4-10-1-11 4-4 5-3 9v7l4 8 8 5 42 12 16 7 11 7 7 6 7 10 5 12 1 4v22l-4 9-7 10-9 6-11 6-21 6-15 1h-26l-13-1-15-5-12-6-9-8-9-14-5-16-1-8 10-4 44-12 9-3-16-5-16-7-8-6-9-9-5-12-2-6v-10l5-14 7-9 11-8 11-5 13-4zm-6 98-6 9-5 14-1 5v8l4 11 7 6 7 2h15l7-3 5-5 3-6 1-4v-12l-4-11-9-8-18-6z" fill="#0B0C0C"/>
<path transform="translate(815,560)" d="m0 0 2 1v37h15l1 2-1 19-3 1h-11v111l2 2h15l4 5v7l-9 10-9 5-6 1h-15l-10-2-11-6-9-10-5-12-1-3-1-15v-94l-17 1v-22l9-1v-2h-14l-7-1 1-2 16-6 27-11 33-13z" fill="#070808"/>
<path transform="translate(1499,528)" d="m0 0h13l10 4 6 4 8 14 1 3v13l-6 12-9 9-6 2v2l-10 3-3-2-13-5-9-7-5-8-2-6-1-9 4-13 6-8 9-6z" fill="#0E0F0F"/>
<path transform="translate(1384,852)" d="m0 0h644l-2 4-4 4-2-1 4-4-14-1h-627z" fill="#FEFEFE"/>
<path transform="translate(570,757)" d="m0 0h2v2l187 1 1-2 2 3h-195l1-3z" fill="#858686"/>
<path transform="translate(605,174)" d="m0 0 4 1 2 3-5-1-44 44-6 5 3 4-1 2-4-4 1-4 34-34 7-8 7-7z" fill="#9BB9CD"/>
<path transform="translate(766,347)" d="m0 0 2 1-40 40v-3l17-17 7-8 10-9z" fill="#E1E1E1"/>
<path transform="translate(605,174)" d="m0 0 4 1 2 3-6-1-10 9-4 5-2-1 7-8 7-7z" fill="#FBFBFB"/>
<path transform="translate(570,757)" d="m0 0h2v2l19 1v1h-24l1-3z" fill="#D1D4D6"/>
<path transform="translate(1564,602)" d="m0 0 2 1-11 11v-3l6-7z" fill="#7B858B"/>
</svg>
